<?xml version="1.0" standalone="no"?><!DOCTYPE svg PUBLIC "-//W3C//DTD SVG 1.1//EN" "http://www.w3.org/Graphics/SVG/1.1/DTD/svg11.dtd"><svg t="1701755977815" class="icon" viewBox="0 0 1024 1024" version="1.1" xmlns="http://www.w3.org/2000/svg" p-id="22956" xmlns:xlink="http://www.w3.org/1999/xlink" width="200" height="200"><path d="M512 512m-414 0a414 414 0 1 0 828 0 414 414 0 1 0-828 0Z" fill="#F0C48A" p-id="22957"></path><path d="M226.652 508.288h567.42v331.416H226.652z" fill="#A4CFF2" p-id="22958"></path><path d="M739.22 508.288h54.856v331.416h-54.856z" fill="#7BABF1" p-id="22959"></path><path d="M794.076 851.708H226.652a12 12 0 0 1-12-12v-331.416a12 12 0 0 1 12-12h567.42a12 12 0 0 1 12 12v331.416a11.992 11.992 0 0 1-11.996 12z m-555.424-24h543.42v-307.416H238.652v307.416z" fill="#4C4372" p-id="22960"></path><path d="M512 787.548H284.78v-315.744h179.088c26.584 0 48.132 21.548 48.132 48.128v267.616zM739.22 787.548H512v-267.612c0-26.584 21.548-48.128 48.128-48.128h179.088v315.74z" fill="#FFFFFF" p-id="22961"></path><path d="M462.732 588.664H335.224a12 12 0 1 1 0-24h127.504a12 12 0 0 1 0.004 24zM462.732 535.56H335.224a12 12 0 1 1 0-24h127.504a12 12 0 0 1 0.004 24zM462.732 641.768H335.224a12 12 0 1 1 0-24h127.504a12 12 0 0 1 0.004 24zM462.732 694.876H335.224a12 12 0 1 1 0-24h127.504a12 12 0 0 1 0.004 24zM462.732 747.98H335.224a12 12 0 1 1 0-24h127.504a12 12 0 0 1 0.004 24z" fill="#4C4372" p-id="22962"></path><path d="M697.252 471.804h41.968v315.744h-41.968z" fill="#D3E6F8" p-id="22963"></path><path d="M512 799.548H284.78a12 12 0 0 1-12-12v-315.744a12 12 0 0 1 12-12h179.088c33.156 0 60.132 26.972 60.132 60.128v267.612a12 12 0 0 1-12 12.004z m-215.22-24H500v-255.612c0-19.92-16.208-36.128-36.132-36.128H296.78v291.74z" fill="#4C4372" p-id="22964"></path><path d="M739.22 799.548H512a12 12 0 0 1-12-12v-267.612c0-33.156 26.972-60.128 60.128-60.128h179.088a12 12 0 0 1 12 12v315.744a11.992 11.992 0 0 1-11.996 11.996z m-215.22-24h203.22v-291.744h-167.088c-19.92 0-36.128 16.208-36.128 36.128v255.616z" fill="#4C4372" p-id="22965"></path><path d="M689.364 588.664h-127.508a12 12 0 1 1 0-24h127.508a12 12 0 1 1 0 24zM689.364 641.768h-127.508a12 12 0 1 1 0-24h127.508a12 12 0 1 1 0 24zM689.364 694.876h-127.508a12 12 0 1 1 0-24h127.508a12 12 0 1 1 0 24zM689.364 747.98h-127.508a12 12 0 1 1 0-24h127.508a12 12 0 1 1 0 24zM689.364 535.56h-127.508a12 12 0 1 1 0-24h127.508a12 12 0 1 1 0 24z" fill="#4C4372" p-id="22966"></path><path d="M697.248 325.888m-27.164 0a27.164 27.164 0 1 0 54.328 0 27.164 27.164 0 1 0-54.328 0Z" fill="#FD919E" p-id="22967"></path><path d="M697.252 365.056c-21.596 0-39.168-17.572-39.168-39.168s17.572-39.168 39.168-39.168c21.592 0 39.164 17.572 39.164 39.168s-17.572 39.168-39.164 39.168z m0-54.336c-8.364 0-15.168 6.804-15.168 15.168s6.804 15.168 15.168 15.168 15.164-6.804 15.164-15.168-6.804-15.168-15.164-15.168z" fill="#4C4372" p-id="22968"></path><path d="M821.24 398.944m-27.164 0a27.164 27.164 0 1 0 54.328 0 27.164 27.164 0 1 0-54.328 0Z" fill="#FD919E" p-id="22969"></path><path d="M821.24 438.112c-21.592 0-39.164-17.572-39.164-39.168s17.572-39.168 39.164-39.168c21.596 0 39.168 17.572 39.168 39.168s-17.572 39.168-39.168 39.168z m0-54.336c-8.364 0-15.164 6.804-15.164 15.168s6.8 15.168 15.164 15.168 15.168-6.804 15.168-15.168-6.808-15.168-15.168-15.168z" fill="#4C4372" p-id="22970"></path><path d="M467.28 315.604a131.308 43.084 90 1 0 86.168 0 131.308 43.084 90 1 0-86.168 0Z" fill="#FFFFFF" p-id="22971"></path><path d="M532.7896 278.798387a131.308 43.084 31.28 1 0-44.740219 73.64263 131.308 43.084 31.28 1 0 44.740219-73.64263Z" fill="#FFFFFF" p-id="22972"></path><path d="M488.001583 278.769011a43.084 131.312 58.72 1 0 44.740219 73.64263 43.084 131.312 58.72 1 0-44.740219-73.64263Z" fill="#FFFFFF" p-id="22973"></path><path d="M510.364 458.916c-37.848 0-55.084-74.284-55.084-143.308s17.24-143.312 55.084-143.312c36.164 0 55.084 72.092 55.084 143.312 0 69.02-17.236 143.308-55.084 143.308z m0-262.624c-9.296 0-31.084 40.592-31.084 119.312 0 78.716 21.788 119.308 31.084 119.308s31.084-40.592 31.084-119.308c0-78.716-21.788-119.312-31.084-119.312z" fill="#4C4372" p-id="22974"></path><path d="M598.556 405.112c-29.412 0-73.072-15.864-116.796-42.432-31.032-18.856-57.912-40.68-75.684-61.452-26.42-30.88-24.472-49.696-18.184-60.04 4.184-6.888 13.524-15.088 34.284-15.088 29.408 0 73.068 15.86 116.792 42.428 58.988 35.84 113.524 89.148 93.872 121.492-4.184 6.888-13.528 15.092-34.284 15.092z m-176.384-155.016c-8.024 0-12.696 1.78-13.772 3.552-1.836 3.028 0.856 14.384 15.912 31.976 16.164 18.892 40.992 38.972 69.912 56.548 38.928 23.656 79.884 38.94 104.332 38.94 8.024 0 12.696-1.784 13.772-3.556 4.824-7.944-18.552-47.644-85.824-88.524-38.932-23.648-79.884-38.936-104.332-38.936z" fill="#4C4372" p-id="22975"></path><path d="M422.172 405.112s0.004 0 0 0c-20.756 0-30.1-8.208-34.284-15.092-6.288-10.344-8.236-29.16 18.184-60.04 17.772-20.772 44.652-42.596 75.684-61.452 43.732-26.572 87.392-42.428 116.796-42.428 20.756 0 30.1 8.204 34.28 15.088 19.652 32.344-34.884 85.652-93.872 121.492-43.712 26.572-87.376 42.432-116.788 42.432z m176.384-155.016c-24.444 0-65.4 15.284-104.332 38.936-28.916 17.576-53.748 37.656-69.912 56.548-15.056 17.592-17.748 28.948-15.912 31.976 1.076 1.768 5.752 3.556 13.772 3.556 24.448 0 65.4-15.284 104.332-38.94 67.272-40.88 90.648-80.58 85.824-88.524-1.076-1.768-5.748-3.552-13.772-3.552z" fill="#4C4372" p-id="22976"></path><path d="M510.364 315.604m-49.448 0a49.448 49.448 0 1 0 98.896 0 49.448 49.448 0 1 0-98.896 0Z" fill="#FD919E" p-id="22977"></path><path d="M510.364 377.056c-33.884 0-61.448-27.568-61.448-61.448s27.568-61.448 61.448-61.448 61.448 27.568 61.448 61.448-27.564 61.448-61.448 61.448z m0-98.9c-20.652 0-37.448 16.8-37.448 37.448s16.8 37.448 37.448 37.448 37.448-16.8 37.448-37.448-16.8-37.448-37.448-37.448zM697.252 483.804a12 12 0 0 1-12-12V353.056a12 12 0 1 1 24 0v118.752a12 12 0 0 1-12 11.996zM739.22 483.804a12 12 0 0 1-12-12V398.944a12 12 0 0 1 12-12h54.856a12 12 0 1 1 0 24h-42.856v60.86a12 12 0 0 1-12 12z" fill="#4C4372" p-id="22978"></path><path d="M326.752 325.888m-27.168 0a27.168 27.168 0 1 0 54.336 0 27.168 27.168 0 1 0-54.336 0Z" fill="#FD919E" p-id="22979"></path><path d="M326.752 365.056c-21.596 0-39.168-17.572-39.168-39.168s17.572-39.168 39.168-39.168 39.168 17.572 39.168 39.168-17.572 39.168-39.168 39.168z m0-54.336c-8.364 0-15.168 6.804-15.168 15.168s6.804 15.168 15.168 15.168 15.168-6.804 15.168-15.168-6.804-15.168-15.168-15.168z" fill="#4C4372" p-id="22980"></path><path d="M202.76 398.944m-27.168 0a27.168 27.168 0 1 0 54.336 0 27.168 27.168 0 1 0-54.336 0Z" fill="#FD919E" p-id="22981"></path><path d="M202.76 438.112c-21.596 0-39.168-17.572-39.168-39.168s17.572-39.168 39.168-39.168 39.168 17.572 39.168 39.168-17.572 39.168-39.168 39.168z m0-54.336c-8.364 0-15.168 6.804-15.168 15.168s6.804 15.168 15.168 15.168 15.168-6.804 15.168-15.168-6.804-15.168-15.168-15.168zM326.752 483.804a12 12 0 0 1-12-12V353.056a12 12 0 1 1 24 0v118.752a12 12 0 0 1-12 11.996z" fill="#4C4372" p-id="22982"></path><path d="M284.78 483.804a12 12 0 0 1-12-12v-60.86H229.928a12 12 0 1 1 0-24h54.852a12 12 0 0 1 12 12v72.86a12 12 0 0 1-12 12z" fill="#4C4372" p-id="22983"></path></svg>